<?xml version="1.0" encoding="UTF-8"?>
<svg version="1.1" xmlns="http://www.w3.org/2000/svg" width="1092" height="823">
<path d="M0 0 C0.98121323 -0.00708481 1.96242645 -0.01416962 2.97337341 -0.02146912 C4.57096748 -0.01775299 4.57096748 -0.01775299 6.20083618 -0.01396179 C7.33149002 -0.01907272 8.46214386 -0.02418365 9.62705994 -0.02944946 C13.36475925 -0.04334973 17.10227425 -0.04238825 20.83999634 -0.04008484 C23.43925037 -0.04397166 26.03850377 -0.0483063 28.63775635 -0.05307007 C34.08670377 -0.06053333 39.53557979 -0.06037869 44.98452759 -0.05497742 C51.27218413 -0.04894033 57.55961674 -0.06124397 63.84723508 -0.08254749 C69.90795529 -0.10232305 75.96855866 -0.10533296 82.02931595 -0.10181236 C84.6024999 -0.10232556 87.17568744 -0.10756308 89.74885178 -0.11762428 C93.34890696 -0.12997241 96.9484454 -0.12320599 100.54849243 -0.11161804 C101.60950668 -0.11926178 102.67052094 -0.12690552 103.76368713 -0.13478088 C109.61423905 -0.09319657 113.87113822 0.36133957 119.00405884 3.26069641 C124.12385743 9.45834734 124.1522055 15.15281281 124.12431335 22.91030884 C124.12559738 24.21214615 124.12559738 24.21214615 124.12690735 25.5402832 C124.1285621 28.45662999 124.12303959 31.37291932 124.11758423 34.28926086 C124.1172779 36.41247906 124.11741138 38.53569737 124.11794949 40.65891552 C124.11817537 46.34797962 124.11237686 52.03702271 124.10533905 57.72608185 C124.09964678 63.06326362 124.09937607 68.40044026 124.09866333 73.73762512 C124.09341469 89.349485 124.07945356 104.96134097 124.06655884 120.57319641 C124.04593384 155.45007141 124.02530884 190.32694641 124.00405884 226.26069641 C225.97405884 226.26069641 327.94405884 226.26069641 433.00405884 226.26069641 C433.00405884 204.48069641 433.00405884 182.70069641 433.00405884 160.26069641 C479.20405884 160.26069641 525.40405884 160.26069641 573.00405884 160.26069641 C573.09219991 213.79148319 573.16607219 267.32220168 573.20832016 320.85304023 C573.21332313 327.16926429 573.21850041 333.4854882 573.2237854 339.80171204 C573.22535926 341.68792447 573.22535926 341.68792447 573.22696492 343.61224221 C573.24438199 363.98747086 573.27592685 384.36265448 573.31267002 404.7378564 C573.35004321 425.6363319 573.37228702 446.53478377 573.38041282 467.43329132 C573.3859081 480.33437576 573.40328001 493.23533294 573.43572471 506.13637821 C573.45682788 514.97665644 573.46326841 523.81686864 573.45806435 532.65717025 C573.45549603 537.76167258 573.45950186 542.86595214 573.48088074 547.97041512 C573.50030136 552.64131525 573.50135809 557.31184215 573.48765442 561.98275922 C573.48595997 563.67465231 573.49107216 565.3665684 573.50359157 567.05841602 C573.51960268 569.35523471 573.51101979 571.65069925 573.49625015 573.94749641 C573.49776903 575.22411616 573.49928792 576.50073591 573.50085282 577.81604111 C572.77273131 582.86466831 570.60510757 586.03900589 566.57858944 589.11146641 C563.76563427 590.36712539 561.87956983 590.63997436 558.81156921 590.64837646 C557.27447548 590.66323341 557.27447548 590.66323341 555.70632935 590.6783905 C554.59294189 590.67388885 553.47955444 590.66938721 552.33242798 590.66474915 C550.560886 590.67504402 550.560886 590.67504402 548.7535553 590.68554688 C545.52203269 590.70069509 542.29087233 590.7023135 539.05932927 590.69660449 C536.35807233 590.69350981 533.65686738 590.6996082 530.95561785 590.70564324 C524.58117706 590.71968091 518.20687031 590.71813367 511.83242798 590.70674133 C505.26407446 590.69526158 498.69612932 590.70933469 492.12782961 590.73613781 C486.48094344 590.75831512 480.83418527 590.76492763 475.18725866 590.7590614 C471.81791143 590.75569531 468.44882592 590.75808318 465.07951546 590.77531242 C461.32106225 590.79018117 457.56350917 590.77957402 453.80508423 590.7624054 C452.69372101 590.77207336 451.58235779 590.78174133 450.43731689 590.79170227 C444.52140579 590.73508416 440.48869141 590.55075907 436.00405884 586.26069641 C432.82863599 581.2098188 432.58142762 577.18500562 432.64329529 571.41490173 C432.64072723 570.5380069 432.63815918 569.66111206 432.63551331 568.75764465 C432.63055643 565.81658004 432.64710344 562.87603043 432.66348267 559.93501282 C432.66440183 557.79164839 432.66400092 555.64828306 432.66238689 553.50491905 C432.66170973 547.76612113 432.67909474 542.02751095 432.7002182 536.28875732 C432.71730551 530.90333973 432.71810769 525.51796776 432.72024536 520.13252258 C432.7359861 504.38355567 432.77786957 488.63462367 432.81655884 472.88569641 C432.87843384 437.69944641 432.94030884 402.51319641 433.00405884 366.26069641 C331.03405884 366.26069641 229.06405884 366.26069641 124.00405884 366.26069641 C124.0832534 435.38583402 124.0832534 435.38583402 124.18423462 504.51094055 C124.19326782 517.87287903 124.19326782 517.87287903 124.19494629 524.12591553 C124.19681143 528.49812851 124.20431379 532.87029304 124.21520996 537.24249268 C124.22892348 542.81901447 124.23304197 548.39546577 124.23020339 553.97200286 C124.230797 556.01889117 124.2347656 558.06578194 124.2424891 560.11265576 C124.25243926 562.87803926 124.25003787 565.64314901 124.24456787 568.40853882 C124.2503932 569.20890784 124.25621853 570.00927687 124.26222038 570.8338995 C124.23422864 576.10054721 124.0602256 581.76871169 120.56655884 586.00288391 C116.40684477 589.01867661 114.30036753 590.38398674 109.2035675 590.40113831 C108.18993134 590.40684845 107.17629517 590.41255859 106.13194275 590.41844177 C105.01554916 590.41955963 103.89915558 590.42067749 102.74893188 590.42182922 C101.57648926 590.42679413 100.40404663 590.43175903 99.19607544 590.43687439 C95.97488062 590.44899556 92.75372213 590.45644462 89.53250861 590.46088505 C87.51999426 590.46381527 85.50748562 590.46792002 83.49497414 590.47238922 C77.19826397 590.48606659 70.90156684 590.49573168 64.60484284 590.49959111 C57.33643587 590.50407054 50.06821708 590.52161188 42.79986733 590.55059171 C37.18195704 590.57221322 31.56409967 590.58229566 25.94614822 590.58363223 C22.59078702 590.58468007 19.23560265 590.59058293 15.88028526 590.60845184 C12.13583429 590.62547132 8.39184315 590.62364177 4.64736938 590.61714172 C2.98188805 590.6309639 2.98188805 590.6309639 1.28276062 590.64506531 C-8.06524459 590.59413028 -8.06524459 590.59413028 -11.99594116 587.26069641 C-17.76418503 581.33222355 -17.14267562 574.54881335 -17.12457561 566.76500034 C-17.12632865 565.81130844 -17.12808169 564.85761654 -17.12988785 563.87502488 C-17.13455421 560.66686211 -17.1320807 557.45874452 -17.12965393 554.25057983 C-17.13152158 551.93225217 -17.13382209 549.61392482 -17.13651925 547.29559797 C-17.14200617 541.58438954 -17.14281841 535.87319367 -17.1416584 530.16198302 C-17.1405223 523.32118106 -17.14516237 516.48038609 -17.14993777 509.63958614 C-17.15961194 495.45651386 -17.16242202 481.27344519 -17.16299482 467.09037001 C-17.1634542 456.1394843 -17.1655117 445.18860001 -17.16869545 434.23771477 C-17.16959298 431.08658884 -17.17048279 427.93546291 -17.17137033 424.78433698 C-17.17159138 424.00098363 -17.17181242 423.21763028 -17.17204017 422.41053895 C-17.17819479 400.37485632 -17.18214068 378.33917417 -17.18169689 356.30349064 C-17.18168131 355.4725958 -17.18166573 354.64170096 -17.18164968 353.78562748 C-17.18156657 349.57420749 -17.18146753 345.36278749 -17.18136498 341.15136749 C-17.18134503 340.31494782 -17.18132509 339.47852815 -17.18130454 338.61676243 C-17.1812641 336.92531867 -17.1812223 335.23387491 -17.18117914 333.54243115 C-17.18056621 307.21877772 -17.18807604 280.89513717 -17.20175171 254.57148743 C-17.21710577 225.00492843 -17.22571836 195.4383779 -17.22478849 165.87181467 C-17.22471385 162.72037439 -17.22466515 159.5689341 -17.22463417 156.41749382 C-17.22462252 155.64151421 -17.22461086 154.86553461 -17.22459885 154.06604047 C-17.22456806 141.5689309 -17.23095867 129.0718325 -17.23956644 116.57472626 C-17.24803515 104.02004721 -17.24903898 91.46538453 -17.24245711 78.9107042 C-17.23908266 72.10690962 -17.23916923 65.30315801 -17.24781036 58.49936676 C-17.2556345 52.2750091 -17.254286 46.05072441 -17.24552623 39.82636862 C-17.2439822 37.57071797 -17.24584109 35.31506198 -17.25138631 33.05941761 C-17.25841069 30.00026713 -17.25318075 26.94137513 -17.24483013 23.88223362 C-17.24979831 23.00069566 -17.25476649 22.1191577 -17.25988522 21.21090648 C-17.22309422 14.86245227 -16.85717689 9.52436149 -12.68344116 4.44819641 C-8.6404254 1.15736963 -5.18206642 0.01252872 0 0 Z " fill="#F42171" transform="translate(121.99594116210938,80.73930358886719)"/>
<path d="M0 0 C1.43794718 -0.00187286 2.87589385 -0.00417544 4.31383973 -0.00686532 C8.22887231 -0.012931 12.14388336 -0.01285597 16.05891955 -0.01167095 C20.29561538 -0.01146561 24.53230453 -0.01699833 28.76899719 -0.02172852 C37.05576865 -0.03000673 45.342533 -0.03278207 53.62930825 -0.03334089 C60.37035887 -0.03381738 67.11140716 -0.03587871 73.85245705 -0.03904152 C92.99726778 -0.04784018 112.14207293 -0.0524621 131.2868857 -0.05171105 C132.31726789 -0.05167109 133.34765009 -0.05163113 134.40925598 -0.05158997 C135.44090743 -0.05154909 136.47255888 -0.0515082 137.53547249 -0.05146609 C154.24816621 -0.05105978 170.96083738 -0.06062741 187.67352458 -0.07472833 C204.86603332 -0.08911875 222.05853109 -0.09599706 239.251046 -0.09513456 C248.8904591 -0.09480352 258.52984856 -0.0975096 268.16925621 -0.10831261 C276.3769579 -0.11745273 284.58462522 -0.11956415 292.79232981 -0.11280318 C296.97279922 -0.1095557 301.15320284 -0.10941659 305.33366585 -0.11815643 C349.00817675 -0.20356339 385.62761172 5.39712757 418.3084259 37.13371277 C441.95521363 60.70740378 454.34975438 93.39389391 454.4514935 126.57217771 C454.4507135 127.93894698 454.44983476 129.3057162 454.4488678 130.67248535 C454.45145528 132.14267831 454.4544695 133.61287057 454.4578712 135.08306187 C454.46589981 139.10588244 454.46772845 143.12868512 454.46846867 147.15151274 C454.47032652 151.49738579 454.47787762 155.84324971 454.48460388 160.18911743 C454.49815941 169.685491 454.5042079 179.18186033 454.50861454 188.67824197 C454.5113823 194.6154942 454.51562068 200.55274482 454.52011871 206.48999596 C454.53230894 222.9496173 454.54260797 239.40923735 454.5459938 255.86886311 C454.54632315 257.44769935 454.54632315 257.44769935 454.54665916 259.05843128 C454.54687743 260.11342057 454.54709571 261.16840987 454.5473206 262.25536853 C454.54776406 264.39295789 454.54821062 266.53054724 454.54866028 268.6681366 C454.54888171 269.72844096 454.54910314 270.78874533 454.54933128 271.88118013 C454.55327498 289.04221058 454.57071703 306.20319846 454.5940198 323.36421249 C454.61778721 341.01086933 454.63019814 358.65750485 454.63136172 376.30417794 C454.63227559 386.20082843 454.63795457 396.09742347 454.65618134 405.99405861 C454.6716554 414.42542251 454.67666009 422.85671383 454.66844323 431.28808925 C454.6645621 435.58222425 454.66534053 439.87621342 454.67950058 444.17033005 C454.81024635 486.23822049 454.81024635 486.23822049 448.2459259 504.69621277 C447.94992493 505.5520697 447.65392395 506.40792664 447.34895325 507.28971863 C442.22660113 521.48643624 434.97679048 534.54226108 425.3084259 546.13371277 C424.66389465 546.92906433 424.0193634 547.72441589 423.3553009 548.54386902 C418.29761728 554.53701852 412.50723662 559.35883794 406.3084259 564.13371277 C405.44346497 564.81433777 404.57850403 565.49496277 403.68733215 566.19621277 C393.50971078 573.93906885 382.58861721 579.55330787 370.6209259 583.94621277 C369.52953308 584.36302307 369.52953308 584.36302307 368.41609192 584.78825378 C348.4981717 591.71705088 326.93771768 590.5428362 306.17382145 590.43789458 C301.77101121 590.41890483 297.36819217 590.41736005 292.96534729 590.41381836 C284.66091103 590.40456243 276.35659586 590.38003785 268.05221248 590.34976989 C258.58398953 590.31602267 249.11576023 590.29968924 239.64749193 590.28468359 C220.20106841 590.25348108 200.75475696 590.20084881 181.3084259 590.13371277 C181.63184967 589.08236145 181.95527344 588.03101013 182.28849792 586.94779968 C183.75202509 581.04723849 183.61643619 575.15633447 183.62727356 569.10832214 C183.63731918 567.81968262 183.64736481 566.53104309 183.65771484 565.20335388 C183.6848729 561.69155536 183.70012179 558.17979663 183.71314287 554.66792107 C183.72883597 550.98968347 183.7556063 547.31152639 183.78117371 543.63334656 C183.82785257 536.67794744 183.86464918 529.722533 183.89784658 522.7670579 C183.93614521 514.84436135 183.98553495 506.9217459 184.03583074 498.99911785 C184.13898847 482.71070784 184.2283011 466.42225272 184.3084259 450.13371277 C184.93257228 450.13132442 185.55671865 450.12893606 186.19977856 450.12647533 C201.38991782 450.06732729 216.57987949 449.99177861 231.76983929 449.89799786 C239.11561333 449.85304114 246.4613389 449.81362625 253.8072052 449.78727722 C260.21021612 449.76429606 266.61307364 449.73089687 273.0159629 449.68501121 C276.40595607 449.66108036 279.79579733 449.64235077 283.18587303 449.63609886 C286.9713395 449.62649867 290.75624989 449.59848682 294.5415802 449.56608582 C296.22580078 449.56823845 296.22580078 449.56823845 297.94404602 449.57043457 C298.97744614 449.55789642 300.01084625 449.54535828 301.07556152 449.53244019 C302.418153 449.52552674 302.418153 449.52552674 303.78786755 449.51847363 C306.93084773 449.03870066 308.77201847 448.03780651 311.3084259 446.13371277 C313.24319336 443.05860342 313.55996548 440.68258506 313.56569481 437.08239174 C313.57536815 435.54504338 313.57536815 435.54504338 313.58523691 433.97663748 C313.5821397 432.85233372 313.5790425 431.72802995 313.57585144 430.56965637 C313.58264811 428.77615865 313.58264811 428.77615865 313.58958209 426.94642866 C313.60006495 423.62631693 313.6015498 420.30642154 313.59919333 416.98630857 C313.59878557 413.4061194 313.60982045 409.82596267 313.61930847 406.24578857 C313.63592794 399.23115418 313.64141844 392.2165534 313.64253323 385.20190097 C313.64348322 379.50076475 313.64759108 373.79963964 313.65393448 368.09850693 C313.67154922 351.93863204 313.68077295 335.77878374 313.67927353 319.61889918 C313.67919362 318.74754743 313.67911371 317.87619568 313.67903137 316.97843933 C313.67890873 315.66981794 313.67890873 315.66981794 313.67878361 314.33475976 C313.67797057 300.19349507 313.69711215 286.05233685 313.72530811 271.91110297 C313.75402379 257.39480046 313.76784914 242.8785499 313.76612055 228.36221826 C313.76545621 220.2108456 313.77096783 212.05958456 313.79247665 203.90823746 C313.81067114 196.9684152 313.81505011 190.02875518 313.80145781 183.08891942 C313.79491939 179.54786877 313.79484199 176.00712951 313.81216431 172.46610832 C313.8307477 168.62783945 313.81836326 164.79002734 313.80290222 160.95173645 C313.81833291 159.27197297 313.81833291 159.27197297 313.83407533 157.55827487 C313.78159444 151.68050546 313.64337753 147.54684993 309.3084259 143.13371277 C303.94138534 140.24965383 297.719375 140.8554327 291.77633667 140.87974548 C290.60825311 140.8766255 289.44016954 140.87350552 288.23668951 140.87029099 C285.00285838 140.86370126 281.76917778 140.86606317 278.53535044 140.87226343 C275.04448376 140.87679153 271.55363731 140.86980235 268.06277466 140.86430359 C261.22720911 140.85541149 254.39168749 140.85733086 247.55612022 140.86312887 C241.9999692 140.86764644 236.44383048 140.86825785 230.88767815 140.86608124 C229.70129917 140.86562154 229.70129917 140.86562154 228.49095295 140.86515255 C226.88418027 140.8645131 225.27740759 140.86386467 223.67063492 140.86320737 C208.60438308 140.85750452 193.53815558 140.86406108 178.47190773 140.8748081 C165.54769131 140.88374184 152.62351082 140.88219295 139.69929504 140.87297058 C124.68834019 140.86226418 109.67740667 140.85805566 94.66644853 140.86419511 C93.0652955 140.8648322 91.46414246 140.86546094 89.86298943 140.86608124 C89.0752088 140.86638979 88.28742817 140.86669834 87.47577541 140.86701624 C81.92757128 140.8687422 76.3793807 140.86583018 70.83117867 140.86112213 C64.06786723 140.85550912 57.3046022 140.85703853 50.54129607 140.86768362 C47.09133225 140.87293493 43.64144577 140.87500632 40.19148254 140.86838531 C36.45007721 140.86292898 32.70889017 140.86976546 28.96749878 140.87974548 C27.87917018 140.87528404 26.79084157 140.8708226 25.66953331 140.86622596 C15.5523718 140.84475262 15.5523718 140.84475262 7.3084259 146.13371277 C6.9784259 166.26371277 6.6484259 186.39371277 6.3084259 207.13371277 C-40.5515741 207.13371277 -87.4115741 207.13371277 -135.6915741 207.13371277 C-135.7328241 193.12933777 -135.7740741 179.12496277 -135.8165741 164.69621277 C-135.8347821 160.30896912 -135.85299011 155.92172546 -135.87174988 151.40153503 C-135.88078308 145.95585632 -135.88078308 145.95585632 -135.88246155 143.38943481 C-135.88549019 141.63433817 -135.8924333 139.87924511 -135.90272522 138.12417603 C-135.98611245 123.12663827 -135.54581573 108.11914349 -131.5040741 93.57121277 C-131.29049255 92.78657654 -131.07691101 92.00194031 -130.8568573 91.19352722 C-128.56662364 83.14888868 -125.42702827 75.60658611 -121.6915741 68.13371277 C-121.10762878 66.96453308 -120.52368347 65.79535339 -119.92204285 64.59074402 C-104.67202783 36.17755814 -78.72226251 15.69443954 -48.1212616 5.97941589 C-32.11659505 1.15822217 -16.65324339 -0.01971963 0 0 Z " fill="#000000" transform="translate(529.6915740966797,80.86628723144531)"/>
<path d="M0 0 C46.86 0 93.72 0 142 0 C142.04898438 14.04433594 142.09796875 28.08867187 142.1484375 42.55859375 C142.1838181 51.44987599 142.21969412 60.34115165 142.2578125 69.23242188 C142.31823831 83.34853626 142.37662726 97.46463826 142.421875 111.58081055 C142.45483784 121.86149278 142.49469284 132.14212136 142.54279006 142.42274433 C142.5680123 147.86517001 142.58980624 153.30756029 142.60334396 158.75002861 C142.61620305 163.87586467 142.63829896 169.00157907 142.66738319 174.12734795 C142.6764289 176.00540855 142.68214216 177.88348873 142.68421364 179.76156998 C142.68755748 182.33344729 142.7030918 184.9049841 142.7215271 187.47679138 C142.718625 188.58140682 142.718625 188.58140682 142.71566427 189.70833772 C142.77210761 195.00576068 143.68647742 199.87407665 145 205 C106.62860351 205.71801385 71.74755659 200.62979237 42 174 C41.44618652 173.50661133 40.89237305 173.01322266 40.32177734 172.50488281 C14.97673204 149.51734535 1.79524383 116.80023835 0 83 C-0.16705799 76.52636572 -0.11736181 70.04937553 -0.09765625 63.57421875 C-0.09618196 61.9393314 -0.09516426 60.30444358 -0.09460449 58.66955566 C-0.08940805 52.67552981 -0.07544702 46.68151412 -0.0625 40.6875 C-0.041875 27.260625 -0.02125 13.83375 0 0 Z " fill="#000000" transform="translate(394,466)"/>
</svg>
